<svg xmlns="http://www.w3.org/2000/svg" viewBox="0 0 120 120"><rect width="120" height="120" rx="24" fill="#1d1c31" /><g transform="translate(8 7)"><g transform="translate(-26.313692,-164.60286)"><path style="fill:#bc70c9;fill-opacity:1" d="M 73.406968,166.23901 123.29122,102.1021 a 0.60949563,0.60949563 12.931751 0 1 1.07726,0.24735 l 15.44628,72.59758 a 0.57767195,0.57767195 144.1998 0 1 -0.85744,0.61841 l -27.16445,-15.94436 a 3.3494122,3.3494122 9.0431781 0 0 -2.41041,-0.38363 l -35.499779,7.75625 a 0.47438238,0.47438238 57.775127 0 1 -0.475713,-0.75469 z" id="path1" transform="matrix(0.76309305,0,0,0.76309305,32.352509,86.869014)" /><path style="fill:#fdc460;fill-opacity:1;stroke-width:0.763093" d="M 76.252441,270.56165 26.501224,233.55861 a 0.46510183,0.46510183 101.69722 0 1 0.170999,-0.82592 l 55.13189,-12.97778 a 0.44081753,0.44081753 52.965273 0 1 0.485893,0.64399 l -11.717591,20.98633 a 2.5559124,2.5559124 97.808639 0 0 -0.253051,1.84525 l 6.501022,26.95583 a 0.36199773,0.36199773 146.54059 0 1 -0.567945,0.37534 z" id="path1-7" /></g></g></svg>